/* XPM */
static const char * levana_xpm[] = {
"24 24 137 2",
"  	c None",
". 	c #949494",
"+ 	c #A2A2A2",
"@ 	c #969696",
"# 	c #9D9D9D",
"$ 	c #9E9E9E",
"% 	c #9B9B9B",
"& 	c #989898",
"* 	c #959595",
"= 	c #9C9C9C",
"- 	c #9A9A9A",
"; 	c #B8B8B8",
"> 	c #A5A5A5",
", 	c #AFAFAF",
"' 	c #B0B0B0",
") 	c #ACACAC",
"! 	c #828282",
"~ 	c #A8A8A8",
"{ 	c #8B8B8B",
"] 	c #B4B4B4",
"^ 	c #AEAEAE",
"/ 	c #B7B7B7",
"( 	c #B6B6B6",
"_ 	c #A6A6A6",
": 	c #B2B2B2",
"< 	c #000000",
"[ 	c #070707",
"} 	c #030303",
"| 	c #FFFFFF",
"1 	c #7F7F7F",
"2 	c #666666",
"3 	c #3E9DFF",
"4 	c #3297FF",
"5 	c #2592FF",
"6 	c #0080FE",
"7 	c #007FFD",
"8 	c #007EFB",
"9 	c #E6E6E6",
"0 	c #727272",
"a 	c #3489DF",
"b 	c #3593F3",
"c 	c #2992FD",
"d 	c #007EFC",
"e 	c #0076EC",
"f 	c #007EFA",
"g 	c #3D9DFF",
"h 	c #3A99FA",
"i 	c #178AFD",
"j 	c #0073E7",
"k 	c #0062C7",
"l 	c #005EBF",
"m 	c #0080FF",
"n 	c #0060C2",
"o 	c #FFE54E",
"p 	c #FFE552",
"q 	c #FFDE20",
"r 	c #FFDA00",
"s 	c #0072E5",
"t 	c #0066CF",
"u 	c #0060C3",
"v 	c #FDE350",
"w 	c #FFE33F",
"x 	c #FFE02B",
"y 	c #FFDD13",
"z 	c #FCD802",
"A 	c #FDD800",
"B 	c #FF5AA8",
"C 	c #FF64AD",
"D 	c #FE52A3",
"E 	c #FF0077",
"F 	c #007BF4",
"G 	c #005CBA",
"H 	c #00478F",
"I 	c #FFE345",
"J 	c #FFE551",
"K 	c #EDCA00",
"L 	c #F9D500",
"M 	c #FF66AE",
"N 	c #FF53A4",
"O 	c #FC3391",
"P 	c #FFDC15",
"Q 	c #FFDC14",
"R 	c #F7D200",
"S 	c #EAC700",
"T 	c #D5B400",
"U 	c #FF4DA1",
"V 	c #FB0076",
"W 	c #F10071",
"X 	c #F30071",
"Y 	c #F80074",
"Z 	c #FAD600",
"` 	c #ECCA00",
" .	c #E2BF00",
"..	c #E0BE00",
"+.	c #DEBC00",
"@.	c #EB006E",
"#.	c #DA0066",
"$.	c #BF005A",
"%.	c #E7C600",
"&.	c #D6B400",
"*.	c #D9B700",
"=.	c #D7B500",
"-.	c #EC006E",
";.	c #DE0068",
">.	c #C3005B",
",.	c #0A0900",
"'.	c #F20071",
").	c #B40054",
"!.	c #C7005E",
"~.	c #979797",
"{.	c #8C8C8C",
"].	c #ADADAD",
"^.	c #B5B5B5",
"/.	c #878787",
"(.	c #A9A9A9",
"_.	c #7B7B7B",
":.	c #939393",
"<.	c #8A8A8A",
"[.	c #757575",
"}.	c #6A6A6A",
"|.	c #868686",
"1.	c #5F5F5F",
"2.	c #6B6B6B",
"3.	c #696969",
"4.	c #626262",
"5.	c #5E5E5E",
"6.	c #6C6C6C",
"7.	c #5C5C5C",
"8.	c #5B5B5B",
"9.	c #676767",
"0.	c #636363",
"a.	c #6E6E6E",
"b.	c #686868",
"c.	c #585858",
"d.	c #5D5D5D",
"e.	c #252525",
"f.	c #272727",
"                                                ",
"                                                ",
"                                                ",
"    . + @ # $ % . & # * + = & @ - . - * .       ",
"    ; > , ' ) ! ~ # { ] ^ / ( ^ . ^ _ : ; ;     ",
"    ; < < < < < < [ } < < < < < < < < < < ;     ",
"    ; < | 1 < < < < < < < < < < < < < < < ;     ",
"    ; < < | 2 < < 3 4 5 6 7 8 < < < < < < ;     ",
"    ; < < < 9 0 < a b c d e f < < < < < < ;     ",
"    ; < < | 2 < < g h i j k l < < < < < < ;     ",
"    ; < | 2 < < < m m 8 n l o o p q r r < ;     ",
"    ; < < < < < < m s t u l v w x y z A < ;     ",
"    ; < < B C D E m F G H l I J r r K L < ;     ",
"    ; < < M N O E E E < < < P Q r R S T < ;     ",
"    ; < < U U V W X Y < < < A Z `  ...+.< ;     ",
"    ; < < E E E @.#.$.< < < A Z %.&.*.=.< ;     ",
"    ; < < E E -.;.>.$.< < < < < < < ,.< < ;     ",
"    ; < < E '.).$.!.$.< < < < < < < < < < ;     ",
"    ; < < < < < < < < < < < < < < < < < < ;     ",
"    ; ; _ ~.= ; {.].& ^.+ ) /.(._.@ :._.<.+     ",
"    [.}.|.1.2.3.4.5.2.6.7.8.5.9.0 0.a.b.c.d.    ",
"    e.e.e.e.e.f.f.e.e.e.e.e.e.e.e.e.e.e.e.e.    ",
"                                                ",
"                                                "};
