/* XPM */
static const char * levana2_xpm[] = {
"25 25 88 1",
" 	c None",
".	c #FBFBF9",
"+	c #FCFCFA",
"@	c #FAFAF8",
"#	c #F9F9F7",
"$	c #F5F5F3",
"%	c #DDDCD8",
"&	c #F7F6F0",
"*	c #FFFEF8",
"=	c #EFEEE9",
"-	c #C7C6C1",
";	c #FAF9EE",
">	c #FEFDF2",
",	c #FAF9EF",
"'	c #F7F5E4",
")	c #FEFCEA",
"!	c #FDFBE9",
"~	c #FDFAE2",
"{	c #F9F6DF",
"]	c #EFEBD0",
"^	c #FCF8D9",
"/	c #E8E4CB",
"(	c #FCF7CF",
"_	c #B6B4A4",
":	c #FBF5C5",
"<	c #DBD6B4",
"[	c #FAF3BA",
"}	c #F0E9B5",
"|	c #FAF1AF",
"1	c #F9F0AF",
"2	c #8B8A89",
"3	c #F9EFA4",
"4	c #9A988C",
"5	c #F3E897",
"6	c #F8EC98",
"7	c #97968A",
"8	c #F6E98D",
"9	c #F7EA8D",
"0	c #F5E88D",
"a	c #8A8A88",
"b	c #F6E882",
"c	c #E2D683",
"d	c #888888",
"e	c #F0E178",
"f	c #F1E278",
"g	c #F5E577",
"h	c #F6E677",
"i	c #C5BC7F",
"j	c #F5E46C",
"k	c #EFDF6E",
"l	c #F3E36C",
"m	c #F2E16D",
"n	c #979584",
"o	c #EDDC65",
"p	c #F4E262",
"q	c #EBDB65",
"r	c #E2D368",
"s	c #EEDD64",
"t	c #F3E162",
"u	c #CDC270",
"v	c #F3E059",
"w	c #F4E158",
"x	c #E7D75E",
"y	c #908E85",
"z	c #D4C560",
"A	c #F3DF4F",
"B	c #ECDA53",
"C	c #A29D7A",
"D	c #D3C45A",
"E	c #F2DD47",
"F	c #E8D54D",
"G	c #9C987C",
"H	c #C7BA5C",
"I	c #EED942",
"J	c #F2DC3F",
"K	c #D6C652",
"L	c #94927F",
"M	c #CCBD55",
"N	c #E8D440",
"O	c #F1DB39",
"P	c #EAD63E",
"Q	c #CEBF54",
"R	c #A6A071",
"S	c #9E9976",
"T	c #ADA56B",
"U	c #BFB35C",
"V	c #ACA46B",
"W	c #A69F70",
"                         ",
"                         ",
"          .+.@#$         ",
"            %&****=      ",
"              -;>>>,     ",
"                ')))!    ",
"                 ~~~~{   ",
"                 ]^^^^/  ",
"                  (((((_ ",
"                  :::::< ",
"                  [[[[[} ",
"                  |||||12",
"                  3333334",
"                 56666667",
"                 8999990a",
"  b              bbbbbbcd",
"  ef            ghhhhhhi ",
"   jk          ljjjjjjmn ",
"   oppqr     stpppppppud ",
"    vwwwwwwwwwwwwwwwwxy  ",
"    zAAAAAAAAAAAAAAABC   ",
"     DEEEEEEEEEEEEEFGd   ",
"      HIJJJJJJJJJJKL     ",
"        MNOOOOOPQRd      ",
"          STUVWdd        "};
