/* XPM */
static const char * levana_xpm[] = {
"16 16 14 1",
" 	c None",
".	c #ADADAD",
"+	c #000000",
"@	c #FFFFFF",
"#	c #389FFF",
"$	c #0084FF",
"%	c #0053A1",
"&	c #FFDF40",
"*	c #FFD500",
"=	c #FF52A5",
"-	c #D9B500",
";	c #FF007B",
">	c #C2005E",
",	c #C28502",
"                ",
"                ",
" .............. ",
" .++++++++++++. ",
" .+@++++++++++. ",
" .++@+##$$++++. ",
" .+@++#$$%++++. ",
" .++++$$%&&**+. ",
" .++==%%%&**-+. ",
" .++=;;>+**--+. ",
" .++;;;>+----+. ",
" .++>>>>++++++. ",
" .++++++++++++. ",
" .............. ",
",,,,,,,,,,,,,,,,",
",,,,,,,,,,,,,,,,"};
